<svg width="39" height="34" viewBox="0 0 39 34" fill="none" xmlns="http://www.w3.org/2000/svg">
<path d="M28.4264 16.8197C32.518 16.0314 35.5973 12.6043 35.5973 8.4954C35.5973 3.80353 31.5824 0 26.63 0C22.1915 0 18.5159 3.05801 17.7987 7.06956C17.0816 3.05801 13.406 0 8.96747 0C4.01484 0 0 3.80353 0 8.4954C0 12.6043 3.07937 16.0314 7.17084 16.8197C3.07926 17.608 0 21.0352 0 25.1441C0 29.8359 4.01484 33.6394 8.96737 33.6394C13.4058 33.6394 17.0814 30.5815 17.7986 26.5699C18.5158 30.5815 22.1914 33.6394 26.6299 33.6394C31.5824 33.6394 35.5972 29.8358 35.5972 25.1441C35.5972 21.0352 32.518 17.608 28.4264 16.8197ZM17.7986 23.7182C17.1808 20.2628 14.3705 17.5145 10.7639 16.8197C14.3705 16.1248 17.1808 13.3766 17.7986 9.92124C18.4164 13.3766 21.2268 16.1248 24.8335 16.8197C21.2268 17.5145 18.4164 20.2628 17.7986 23.7182Z" fill="#1D1D1D"/>
<path opacity="0.5" d="M31.6364 16.8197C35.728 16.0314 38.8072 12.6043 38.8072 8.4954C38.8072 3.80353 34.7924 0 29.84 0C25.4014 0 21.7259 3.05801 21.0087 7.06956C20.2915 3.05801 16.616 0 12.1774 0C7.2248 0 3.20996 3.80353 3.20996 8.4954C3.20996 12.6043 6.28933 16.0314 10.3808 16.8197C6.28922 17.608 3.20996 21.0352 3.20996 25.1441C3.20996 29.8359 7.2248 33.6394 12.1773 33.6394C16.6158 33.6394 20.2913 30.5815 21.0086 26.5699C21.7258 30.5815 25.4013 33.6394 29.8399 33.6394C34.7924 33.6394 38.8071 29.8358 38.8071 25.1441C38.8071 21.0352 35.728 17.608 31.6364 16.8197ZM21.0086 23.7182C20.3908 20.2628 17.5805 17.5145 13.9739 16.8197C17.5805 16.1248 20.3908 13.3766 21.0086 9.92124C21.6264 13.3766 24.4368 16.1248 28.0434 16.8197C24.4368 17.5145 21.6264 20.2628 21.0086 23.7182Z" fill="#009B3E"/>
</svg>
