<svg width="40" height="36" viewBox="0 0 40 36" fill="none" xmlns="http://www.w3.org/2000/svg">
<g clip-path="url(#clip0_1_4533)">
<path d="M27.0458 17.9999H26.8578C31.6889 17.9999 35.6053 14.0834 35.6053 9.25236V0.416504H26.7694C21.9384 0.416504 18.0219 4.33293 18.0219 9.16401C18.0218 4.33283 14.1055 0.416504 9.27433 0.416504H0.438477V9.25236C0.438477 14.0834 4.3549 17.9999 9.18598 17.9999H9.37396C4.54278 17.9999 0.626454 21.9163 0.626454 26.7474V35.5832H9.46231C14.2934 35.5832 18.2098 31.6668 18.2098 26.8357C18.2098 31.6668 22.1262 35.5832 26.9573 35.5832H35.7932V26.7474C35.7932 21.9163 31.8769 17.9999 27.0458 17.9999Z" fill="#081219"/>
</g>
<g clip-path="url(#clip1_1_4533)">
<path opacity="0.5" d="M30.8138 17.9999H30.6259C35.4569 17.9999 39.3734 14.0834 39.3734 9.25236V0.416504H30.5375C25.7064 0.416504 21.79 4.33293 21.79 9.16401C21.7899 4.33283 17.8736 0.416504 13.0424 0.416504H4.20654V9.25236C4.20654 14.0834 8.12296 17.9999 12.954 17.9999H13.142C8.31084 17.9999 4.39452 21.9163 4.39452 26.7474V35.5832H13.2304C18.0615 35.5832 21.9779 31.6668 21.9779 26.8357C21.9779 31.6668 25.8943 35.5832 30.7254 35.5832H39.5612V26.7474C39.5612 21.9163 35.6449 17.9999 30.8138 17.9999Z" fill="#009B3E"/>
</g>
<defs>
<clipPath id="clip0_1_4533">
<rect width="36" height="36" fill="white"/>
</clipPath>
<clipPath id="clip1_1_4533">
<rect width="36" height="36" fill="white" transform="translate(4)"/>
</clipPath>
</defs>
</svg>
