<svg width="156" height="32" viewBox="0 0 156 32" fill="none" xmlns="http://www.w3.org/2000/svg">
<g clip-path="url(#clip0_3_5375)">
<path fill-rule="evenodd" clip-rule="evenodd" d="M122.746 8.28445C122.746 9.52758 122.692 10.0059 123.301 11.1363C124.191 12.8548 125.077 14.0156 126.799 15.0363C127.408 15.4294 127.521 15.5116 128.465 15.792C129.187 15.987 129.855 16.182 130.464 16.2947C133.13 16.7974 142.905 16.8675 144.848 17.1905C148.681 17.8334 152.624 20.4202 149.404 24.1556C148.736 24.9112 148.014 25.3439 146.905 25.7065C142.185 27.2878 135.296 26.8673 130.464 25.4688C128.075 24.7559 125.077 22.9247 124.355 22.8668L122.521 26.4469C128.407 30.3895 133.407 31.1604 140.961 31.1604C146.07 31.1604 151.07 29.9447 154.123 26.392C157.511 22.4067 156.012 17.9461 151.957 15.0089C145.625 10.4782 134.017 13.4428 130.406 11.2064C129.739 10.7859 128.13 9.27773 128.13 8.28445C128.13 4.78969 138.572 3.15352 145.458 5.34727L151.235 7.61414C151.734 6.69094 152.956 4.90242 153.069 3.81164C152.624 3.69891 148.736 1.89516 145.403 1.11211C139.571 -0.30164 133.017 -0.78914 127.685 2.24555C125.851 3.32109 122.743 5.43258 122.743 8.2875" fill="white"/>
<path fill-rule="evenodd" clip-rule="evenodd" d="M33.6589 15.472H39.2681L42.6014 9.18024C42.8787 8.73235 43.0463 8.29969 43.3235 7.8518C43.6556 7.20891 44.3229 5.76774 44.8774 5.37774C45.0999 6.38321 52.0437 18.1045 52.2631 19.0552H31.6022C31.3798 19.5305 31.2122 19.9631 30.9928 20.4263C30.7156 21.057 30.548 21.1819 30.2707 21.7547C29.381 23.6834 26.5505 29.1799 26.4926 30.0483H31.3798L33.7685 25.4323C34.1585 24.5639 34.3231 24.7193 34.5455 23.7687H54.9839C55.4288 25.7827 57.4275 28.077 57.8724 30.0483H63.7041L48.0431 0.661176H41.4893L36.657 9.73782C36.0446 10.9139 33.8234 14.6463 33.6589 15.472Z" fill="white"/>
<path fill-rule="evenodd" clip-rule="evenodd" d="M88.6427 18.1563C87.9755 17.7084 87.6434 17.1783 87.1437 16.5354L76.9793 4.03407V8.06203C76.9793 9.99071 76.7569 10.2162 77.7014 11.3618L88.4203 25.1093C89.0876 24.6492 97.1953 14.6494 98.3074 13.2234L103.249 7.19672C103.749 6.60868 103.694 6.48375 104.362 6.0511V30.0483H109.304V0.661176H103.249C102.582 0.661176 101.973 1.73672 101.36 2.57766C98.6395 6.1425 93.472 12.2271 90.4739 15.9473C89.9194 16.6603 89.1424 17.4281 88.6397 18.1563" fill="white"/>
<path fill-rule="evenodd" clip-rule="evenodd" d="M0 30.0422H21.5505V25.7766H5.16445V0.661176H0V30.0422Z" fill="white"/>
<path d="M73.1463 0.661176H67.9819V30.0422H73.1463V0.661176Z" fill="white"/>
<path d="M118.691 0.661176H113.581V30.0422H118.691V0.661176Z" fill="white"/>
</g>
<defs>
<clipPath id="clip0_3_5375">
<rect width="155.322" height="31.028" fill="white" transform="scale(1.00436)"/>
</clipPath>
</defs>
</svg>
