<svg width="156" height="32" viewBox="0 0 156 32" fill="none" xmlns="http://www.w3.org/2000/svg">
<g clip-path="url(#clip0_42_914)">
<rect width="155.322" height="31.028" fill="black"/>
<path fill-rule="evenodd" clip-rule="evenodd" d="M122.213 8.24843C122.213 9.48615 122.158 9.96243 122.765 11.0879C123.651 12.7989 124.534 13.9547 126.248 14.971C126.854 15.3623 126.967 15.4442 127.907 15.7233C128.626 15.9175 129.29 16.1116 129.897 16.2239C132.552 16.7244 142.284 16.7942 144.219 17.1157C148.035 17.7558 151.961 20.3314 148.754 24.0506C148.09 24.803 147.371 25.2337 146.267 25.5947C141.568 27.1692 134.709 26.7506 129.897 25.3581C127.519 24.6483 124.534 22.825 123.815 22.7674L121.989 26.3319C127.85 30.2574 132.828 31.025 140.348 31.025C145.435 31.025 150.414 29.8145 153.453 26.2773C156.827 22.3093 155.334 17.8681 151.296 14.9437C144.993 10.4326 133.434 13.3844 129.84 11.1577C129.175 10.739 127.573 9.23739 127.573 8.24843C127.573 4.76885 137.97 3.13979 144.826 5.324L150.577 7.58103C151.075 6.66183 152.292 4.88109 152.404 3.79505C151.961 3.68281 148.09 1.88689 144.771 1.10725C138.965 -0.300356 132.439 -0.785737 127.131 2.23576C125.304 3.30664 122.21 5.40894 122.21 8.25146" fill="white"/>
<path fill-rule="evenodd" clip-rule="evenodd" d="M33.5126 15.4048H39.0975L42.4163 9.14031C42.6923 8.69436 42.8592 8.26359 43.1352 7.81764C43.4659 7.17754 44.1303 5.74264 44.6824 5.35433C44.9038 6.35543 51.8175 18.0258 52.0359 18.9723H31.4648C31.2434 19.4456 31.0765 19.8763 30.8581 20.3375C30.5821 20.9654 30.4152 21.0898 30.1391 21.6601C29.2533 23.5804 26.4351 29.0531 26.3774 29.9177H31.2434L33.6218 25.3217C34.0101 24.4571 34.1739 24.6118 34.3953 23.6653H54.745C55.1879 25.6706 57.1779 27.9549 57.6208 29.9177H63.4272L47.8343 0.658264H41.309L36.4976 9.69546C35.8879 10.8664 33.6764 14.5826 33.5126 15.4048Z" fill="white"/>
<path fill-rule="evenodd" clip-rule="evenodd" d="M88.2575 18.0774C87.5932 17.6314 87.2625 17.1036 86.765 16.4635L76.6448 4.0165V8.02696C76.6448 9.94725 76.4233 10.1717 77.3637 11.3124L88.0361 25.0001C88.7004 24.5421 96.7729 14.5857 97.8802 13.1659L102.801 7.16541C103.298 6.57992 103.244 6.45554 103.908 6.02476V29.9177H108.829V0.658264H102.801C102.136 0.658264 101.53 1.72914 100.92 2.56642C98.2109 6.11577 93.0658 12.1739 90.0807 15.878C89.5286 16.5879 88.755 17.3524 88.2545 18.0774" fill="white"/>
<path fill-rule="evenodd" clip-rule="evenodd" d="M0 29.9116H21.4569V25.6645H5.14201V0.658264H0V29.9116Z" fill="white"/>
<path d="M72.8285 0.658264H67.6865V29.9116H72.8285V0.658264Z" fill="white"/>
<path d="M118.175 0.658264H113.088V29.9116H118.175V0.658264Z" fill="white"/>
</g>
<defs>
<clipPath id="clip0_42_914">
<rect width="155.322" height="31.028" fill="white"/>
</clipPath>
</defs>
</svg>
