<svg width="156" height="32" viewBox="0 0 156 32" fill="none" xmlns="http://www.w3.org/2000/svg">
<g clip-path="url(#clip0_1_4286)">
<path fill-rule="evenodd" clip-rule="evenodd" d="M122.213 8.24846C122.213 9.48618 122.158 9.96246 122.765 11.0879C123.651 12.7989 124.534 13.9547 126.248 14.971C126.854 15.3623 126.967 15.4442 127.907 15.7233C128.626 15.9175 129.29 16.1116 129.897 16.2239C132.552 16.7244 142.284 16.7942 144.219 17.1158C148.035 17.7559 151.961 20.3314 148.754 24.0507C148.09 24.803 147.371 25.2338 146.267 25.5948C141.568 27.1692 134.709 26.7506 129.897 25.3582C127.519 24.6483 124.534 22.8251 123.815 22.7674L121.988 26.332C127.849 30.2575 132.828 31.025 140.348 31.025C145.435 31.025 150.414 29.8146 153.453 26.2773C156.827 22.3094 155.334 17.8681 151.296 14.9437C144.993 10.4327 133.434 13.3844 129.84 11.1577C129.175 10.7391 127.573 9.23742 127.573 8.24846C127.573 4.76888 137.97 3.13982 144.826 5.32403L150.577 7.58106C151.075 6.66187 152.291 4.88112 152.404 3.79508C151.961 3.68284 148.09 1.88693 144.771 1.10728C138.965 -0.300325 132.439 -0.785707 127.131 2.23579C125.304 3.30667 122.21 5.40897 122.21 8.25149" fill="white"/>
<path fill-rule="evenodd" clip-rule="evenodd" d="M33.5126 15.4048H39.0975L42.4163 9.14037C42.6924 8.69442 42.8592 8.26365 43.1353 7.8177C43.4659 7.17761 44.1303 5.7427 44.6824 5.35439C44.9039 6.35549 51.8175 18.0259 52.036 18.9724H31.4649C31.2434 19.4456 31.0766 19.8764 30.8582 20.3375C30.5821 20.9655 30.4152 21.0899 30.1392 21.6602C29.2534 23.5805 26.4351 29.0531 26.3775 29.9177H31.2434L33.6218 25.3218C34.0101 24.4572 34.1739 24.6119 34.3954 23.6654H54.745C55.1879 25.6706 57.178 27.955 57.6209 29.9177H63.4273L47.8344 0.658325H41.309L36.4977 9.69552C35.8879 10.8665 33.6764 14.5827 33.5126 15.4048Z" fill="white"/>
<path fill-rule="evenodd" clip-rule="evenodd" d="M88.2575 18.0775C87.5932 17.6315 87.2625 17.1037 86.765 16.4636L76.6448 4.01656V8.02702C76.6448 9.94731 76.4233 10.1718 77.3637 11.3125L88.0361 25.0002C88.7004 24.5421 96.7729 14.5857 97.8802 13.166L102.801 7.16547C103.298 6.57998 103.244 6.4556 103.908 6.02482V29.9177H108.829V0.658325H102.801C102.136 0.658325 101.53 1.7292 100.92 2.56648C98.2109 6.11583 93.0658 12.174 90.0807 15.8781C89.5286 16.5879 88.755 17.3524 88.2545 18.0775" fill="white"/>
<path fill-rule="evenodd" clip-rule="evenodd" d="M0 29.9117H21.4569V25.6646H5.14201V0.658325H0V29.9117Z" fill="white"/>
<path d="M72.8284 0.658325H67.6864V29.9117H72.8284V0.658325Z" fill="white"/>
<path d="M118.175 0.658325H113.088V29.9117H118.175V0.658325Z" fill="white"/>
</g>
<defs>
<clipPath id="clip0_1_4286">
<rect width="155.322" height="31.028" fill="white"/>
</clipPath>
</defs>
</svg>
