<?xml version="1.0" encoding="UTF-8"?>
<svg id="Layer_2" data-name="Layer 2" xmlns="http://www.w3.org/2000/svg" viewBox="0 0 327.62 353">
  <defs>
    <style>
      .cls-1 {
        stroke-miterlimit: 10;
      }

      .cls-1, .cls-2 {
        fill: none;
        stroke: #000;
        stroke-linecap: round;
        stroke-width: 20px;
      }

      .cls-2 {
        stroke-linejoin: round;
      }
    </style>
  </defs>
  <g id="Layer_1-2" data-name="Layer 1">
    <path class="cls-1" d="m246.31,265.69c-.77,12.08-4.14,23.45-9.55,33.57-13.92,26.03-41.37,43.74-72.95,43.74s-59.03-17.71-72.95-43.74c-5.41-10.12-8.78-21.49-9.55-33.57-.18-2.89,2.09-5.36,4.99-5.36h155.02c2.9,0,5.17,2.47,4.99,5.36Z"/>
    <path class="cls-1" d="m317.62,163.81c0,58.55-32.71,109.46-80.86,135.45,5.41-10.12,8.78-21.49,9.55-33.57.18-2.89-2.09-5.36-4.99-5.36H86.3c-2.9,0-5.17,2.47-4.99,5.36.77,12.08,4.14,23.45,9.55,33.57C42.71,273.27,10,222.36,10,163.81,10,78.86,78.86,10,163.81,10s153.81,68.86,153.81,153.81Z"/>
    <path class="cls-2" d="m163.81,260.33v-98.24c0-15.45,12.53-27.98,27.98-27.98h0c15.45,0,27.98,12.53,27.98,27.98v14.24"/>
    <line class="cls-1" x1="219.77" y1="260.33" x2="219.77" y2="231.91"/>
    <line class="cls-1" x1="108.13" y1="260.33" x2="108.13" y2="231.91"/>
    <path class="cls-1" d="m153.81,55.89c-10.24,0-36.46,2.67-59.02,24.89"/>
  </g>
</svg>