<?xml version="1.0" encoding="iso-8859-1"?>
<!-- Uploaded to: SVG Repo, www.svgrepo.com, Generator: SVG Repo Mixer Tools -->
<svg fill="#000000" height="800px" width="800px" version="1.1" id="Layer_1" xmlns="http://www.w3.org/2000/svg" xmlns:xlink="http://www.w3.org/1999/xlink" 
	 viewBox="0 0 512 512" xml:space="preserve">
<g>
	<g>
		<path d="M435.073,118.019c0.001-8.818-7.148-15.967-15.966-15.968l-147.141-0.012V74.458c0.353,0.023,0.706,0.053,1.064,0.053
			h9.58c8.818,0,15.967-7.149,15.967-15.967c0-8.818-7.149-15.967-15.967-15.967h-9.58c-0.359,0-0.711,0.031-1.064,0.053V29.456
			c4.473-2.829,7.451-7.807,7.451-13.49C279.418,7.149,272.269,0,263.451,0h-14.902c-8.818,0-15.967,7.149-15.967,15.967
			c0,5.683,2.978,10.66,7.451,13.49v13.28c-0.698-0.094-1.405-0.159-2.129-0.159h-9.58c-8.818,0-15.967,7.149-15.967,15.967
			c0,8.818,7.149,15.967,15.967,15.967h9.58c0.724,0,1.431-0.065,2.129-0.159v27.683l-147.139-0.011h-0.001
			c-8.817,0-15.966,7.148-15.967,15.966c-0.001,8.61,6.82,15.61,15.35,15.937l0.082,17.442c0.109,33.68,13.325,65.303,37.216,89.042
			c19.665,19.54,44.624,31.805,71.62,35.476l-22.403,176.923c-1.884,14.872,2.731,30.104,12.662,41.333
			C201.345,505.332,215.568,512,230.498,512c0.055,0,0.111,0,0.166,0l51.112-0.425c14.991-0.048,29.243-6.683,39.099-17.976
			c9.858-11.293,14.376-26.358,12.398-41.217l-23.5-176.547c62.164-7.912,110.288-61.256,110.082-125.523l-0.081-16.353
			C428.28,133.605,435.072,126.611,435.073,118.019z M296.817,472.47c-3.875,4.438-9.251,7.154-15.144,7.173l-51.111,0.424
			c-0.022,0-0.045,0-0.068,0c-5.864,0-11.232-2.679-15.118-7.075c-3.902-4.413-5.645-10.193-4.904-16.038l22.77-179.875
			l44.459-0.175l23.919,179.645C302.396,462.387,300.691,468.031,296.817,472.47z M294.065,244.733l-75.314,0.091
			c-0.105,0-0.201,0-0.305,0c-51.776,0-93.988-41.891-94.153-93.731l-0.082-17.207l263.63,0.057l0.082,16.482
			C388.089,202.343,345.984,244.567,294.065,244.733z"/>
	</g>
</g>
</svg>