<svg
  width="24"
  height="24"
  viewBox="0 0 24 24"
  fill="none"
  xmlns="http://www.w3.org/2000/svg"
>
  <path
    d="M8.96173 18.9072L9.42605 18.3182L8.96173 18.9072ZM12 5.49697L11.4596 6.01707C11.601 6.16397 11.7961 6.24697 12 6.24697C12.2039 6.24697 12.399 6.16397 12.5404 6.01707L12 5.49697ZM15.0383 18.9072L15.5026 19.4962L15.0383 18.9072ZM8.96173 18.9072L9.42605 18.3182C7.91039 17.1234 6.25307 15.9566 4.93829 14.4761C3.64922 13.0246 2.75 11.3308 2.75 9.13344H2H1.25C1.25 11.799 2.3605 13.8324 3.81672 15.4721C5.24722 17.0829 7.07077 18.3716 8.49742 19.4962L8.96173 18.9072ZM2 9.13344H2.75C2.75 6.98257 3.96537 5.17886 5.62436 4.42053C7.23607 3.68381 9.40166 3.87891 11.4596 6.01707L12 5.49697L12.5404 4.97687C10.0985 2.43986 7.26409 2.02172 5.00076 3.0563C2.78471 4.06926 1.25 6.42137 1.25 9.13344H2ZM8.96173 18.9072L8.49742 19.4962C9.00965 19.9 9.55954 20.3306 10.1168 20.6563C10.6739 20.9818 11.3096 21.2463 12 21.2463V20.4963V19.7463C11.6904 19.7463 11.3261 19.6256 10.8736 19.3612C10.4213 19.0969 9.95208 18.7329 9.42605 18.3182L8.96173 18.9072ZM15.0383 18.9072L15.5026 19.4962C16.9292 18.3716 18.7528 17.0829 20.1833 15.4721C21.6395 13.8324 22.75 11.799 22.75 9.13344H22H21.25C21.25 11.3308 20.3508 13.0246 19.0617 14.4761C17.7469 15.9566 16.0896 17.1234 14.574 18.3182L15.0383 18.9072ZM22 9.13344H22.75C22.75 6.42137 21.2153 4.06926 18.9992 3.0563C16.7359 2.02172 13.9015 2.43986 11.4596 4.97687L12 5.49697L12.5404 6.01707C14.5983 3.87891 16.7639 3.68381 18.3756 4.42053C20.0346 5.17886 21.25 6.98257 21.25 9.13344H22ZM15.0383 18.9072L14.574 18.3182C14.0479 18.7329 13.5787 19.0969 13.1264 19.3612C12.6739 19.6256 12.3096 19.7463 12 19.7463V20.4963V21.2463C12.6904 21.2463 13.3261 20.9818 13.8832 20.6563C14.4405 20.3306 14.9903 19.9 15.5026 19.4962L15.0383 18.9072Z"
    fill="#1D1D1D"
  />
</svg>
